<svg xmlns="http://www.w3.org/2000/svg" viewBox="0 0 100 100">
  <rect width="100" height="100" fill="#0f141c"/>
  <rect x="6" y="70" width="88" height="4" fill="#d6dde8"/>
  <path d="M8.000 70.000 A42 42 0 0 1 29.000 33.627 L39.000 50.947 A22 22 0 0 0 28.000 70.000 Z" fill="#d6dde8" stroke="#0f141c" stroke-width="1.4"/>
  <path d="M29.000 33.627 A42 42 0 0 1 71.000 33.627 L61.000 50.947 A22 22 0 0 0 39.000 50.947 Z" fill="#C2381C" stroke="#0f141c" stroke-width="1.4"/>
  <path d="M71.000 33.627 A42 42 0 0 1 92.000 70.000 L72.000 70.000 A22 22 0 0 0 61.000 50.947 Z" fill="#d6dde8" stroke="#0f141c" stroke-width="1.4"/>
</svg>
