<svg xmlns="http://www.w3.org/2000/svg" viewBox="0 0 100 100" role="img" aria-labelledby="title desc">
  <title id="title">Archolith dropping keystone</title>
  <desc id="desc">Arch logo with a floating keystone descending into place.</desc>
  <rect width="100" height="100" fill="#ECE5D5"/>
  <rect x="8" y="70" width="84" height="3" fill="#0F0C09"/>
  <path d="M10.000 70.000 A40 40 0 0 1 17.639 46.489 L30.584 55.893 A24 24 0 0 0 26.000 70.000 Z" fill="#0F0C09" stroke="#ECE5D5" stroke-width="0.9"/>
  <path d="M17.639 46.489 A40 40 0 0 1 37.639 31.958 L42.584 47.175 A24 24 0 0 0 30.584 55.893 Z" fill="#0F0C09" stroke="#ECE5D5" stroke-width="0.9"/>
  <path d="M62.361 31.958 A40 40 0 0 1 82.361 46.489 L69.416 55.893 A24 24 0 0 0 57.416 47.175 Z" fill="#0F0C09" stroke="#ECE5D5" stroke-width="0.9"/>
  <path d="M82.361 46.489 A40 40 0 0 1 90.000 70.000 L74.000 70.000 A24 24 0 0 0 69.416 55.893 Z" fill="#0F0C09" stroke="#ECE5D5" stroke-width="0.9"/>
  <path d="M44 8 L56 8 L60 26 L40 26 Z" fill="#C2381C"/>
  <circle cx="50" cy="32" r="0.9" fill="#C2381C"/>
  <circle cx="50" cy="36" r="0.9" fill="#C2381C"/>
  <circle cx="50" cy="40" r="0.9" fill="#C2381C"/>
</svg>
