<svg xmlns="http://www.w3.org/2000/svg" viewBox="0 0 100 100" role="img" aria-labelledby="title desc">
  <title id="title">Archolith classic keystone arch</title>
  <desc id="desc">Classic five-stone Roman arch with a central keystone.</desc>
  <rect width="100" height="100" fill="#ECE5D5"/>
  <rect x="10" y="62" width="80" height="3" fill="#0F0C09"/>
  <path d="M12.000 62.000 A38 38 0 0 1 19.257 39.664 L32.202 49.069 A22 22 0 0 0 28.000 62.000 Z" fill="#0F0C09" stroke="#ECE5D5" stroke-width="0.9"/>
  <path d="M19.257 39.664 A38 38 0 0 1 38.257 25.860 L43.202 41.077 A22 22 0 0 0 32.202 49.069 Z" fill="#0F0C09" stroke="#ECE5D5" stroke-width="0.9"/>
  <path d="M38.257 25.860 A38 38 0 0 1 61.743 25.860 L56.798 41.077 A22 22 0 0 0 43.202 41.077 Z" fill="#C2381C" stroke="#ECE5D5" stroke-width="0.9"/>
  <path d="M61.743 25.860 A38 38 0 0 1 80.743 39.664 L67.798 49.069 A22 22 0 0 0 56.798 41.077 Z" fill="#0F0C09" stroke="#ECE5D5" stroke-width="0.9"/>
  <path d="M80.743 39.664 A38 38 0 0 1 88.000 62.000 L72.000 62.000 A22 22 0 0 0 67.798 49.069 Z" fill="#0F0C09" stroke="#ECE5D5" stroke-width="0.9"/>
</svg>
